<?xml version="1.0" encoding="UTF-8"?>
<!DOCTYPE svg PUBLIC "-//W3C//DTD SVG 1.1//EN" "http://www.w3.org/Graphics/SVG/1.1/DTD/svg11.dtd">
<!-- Creator: CorelDRAW X6 -->
<svg xmlns="http://www.w3.org/2000/svg" xml:space="preserve" width="210mm" height="297mm" version="1.1" style="shape-rendering:geometricPrecision; text-rendering:geometricPrecision; image-rendering:optimizeQuality; fill-rule:evenodd; clip-rule:evenodd"
viewBox="0 0 21000 29700"
 xmlns:xlink="http://www.w3.org/1999/xlink">
 <defs>
  <style type="text/css">
   <![CDATA[
    .fil2 {fill:#2B2A29}
    .fil0 {fill:#434242;fill-rule:nonzero}
    .fil1 {fill:#E31E24;fill-rule:nonzero}
   ]]>
  </style>
   <mask id="id0">
  <linearGradient id="id1" gradientUnits="userSpaceOnUse" x1="10410.8" y1="6278.29" x2="12148.5" y2="3469.41">
   <stop offset="0" style="stop-opacity:1; stop-color:white"/>
   <stop offset="1" style="stop-opacity:0.329412; stop-color:white"/>
  </linearGradient>
    <rect style="fill:url(#id1)" x="9842" y="3336" width="2875" height="3076"/>
   </mask>
   <mask id="id2">
  <linearGradient id="id3" gradientUnits="userSpaceOnUse" x1="5216.65" y1="1807.65" x2="8423.11" y2="3504.41">
   <stop offset="0" style="stop-opacity:1; stop-color:white"/>
   <stop offset="1" style="stop-opacity:0; stop-color:white"/>
  </linearGradient>
    <rect style="fill:url(#id3)" x="4844" y="821" width="3952" height="3671"/>
   </mask>
 </defs>
 <g id="Layer_x0020_1">
  <metadata id="CorelCorpID_0Corel-Layer"/>
  <path class="fil0" d="M5625 1908l-524 1034 603 0 0 673 -1645 0 521 -1041 -541 0 0 -666 1587 0zm1989 957l-971 0c-13,-49 -20,-94 -20,-134 0,-57 10,-113 29,-167l326 0c-23,-129 -94,-193 -214,-193 -80,0 -145,34 -195,102 -50,68 -75,155 -75,262 0,111 24,200 72,269 49,68 112,103 191,103 64,0 126,-32 185,-96l365 439c-170,134 -359,201 -568,201 -253,0 -466,-85 -639,-255 -172,-171 -259,-381 -259,-633 0,-250 87,-462 261,-634 175,-172 389,-259 642,-259 248,0 456,84 625,253 169,168 253,376 253,623 0,25 -3,65 -8,120zm1201 -974l0 685c-44,-25 -85,-37 -121,-37 -116,0 -174,89 -174,267l0 810 -642 0 0 -933c0,-247 67,-443 202,-590 134,-147 314,-220 539,-220 50,0 115,6 195,18zm999 -18c243,0 450,87 623,261 174,174 260,383 260,626 0,247 -88,457 -263,631 -176,174 -387,260 -635,260 -248,0 -461,-87 -636,-261 -176,-174 -264,-384 -264,-629 0,-250 88,-461 264,-631 176,-171 393,-256 652,-256zm-17 631c-69,0 -127,25 -175,75 -48,50 -72,110 -72,183 0,71 24,132 72,182 49,50 106,75 174,75 68,0 127,-25 175,-75 49,-51 72,-112 72,-182 0,-72 -24,-133 -72,-183 -48,-50 -106,-75 -176,-75zm-1184 2787l635 -24c-18,246 -110,449 -275,607 -165,158 -367,238 -604,238 -251,0 -463,-87 -636,-262 -173,-175 -260,-389 -260,-642 0,-241 87,-447 262,-618 175,-171 384,-257 628,-257 213,0 402,67 565,202 163,135 265,306 305,515l-649 24c-56,-73 -127,-109 -212,-109 -73,0 -133,24 -180,72 -47,48 -70,109 -70,182 0,74 25,136 74,186 50,50 112,75 186,75 108,0 185,-63 231,-190zm1864 146l0 663c-53,9 -101,13 -144,13 -257,0 -470,-85 -641,-254 -171,-169 -257,-380 -257,-635 0,-248 87,-458 260,-630 172,-172 383,-259 631,-259 276,0 493,81 653,243 159,162 238,383 238,663l0 838 -642 0 0 -791c0,-90 -22,-162 -65,-216 -43,-53 -102,-80 -176,-80 -67,0 -124,25 -173,74 -49,49 -73,107 -73,174 0,71 22,129 66,175 44,46 101,68 168,68 56,0 108,-15 155,-44zm1683 -1698l0 656 288 0 0 677 -288 0c0,136 21,229 64,281 43,51 121,77 234,77l0 673c-33,1 -58,1 -74,1 -145,0 -282,-34 -410,-101 -129,-67 -231,-158 -309,-274 -98,-147 -147,-342 -147,-584l0 -1404 642 0zm1552 1698l0 663c-53,9 -101,13 -144,13 -257,0 -470,-85 -641,-254 -171,-169 -257,-380 -257,-635 0,-248 87,-458 260,-630 172,-172 383,-259 631,-259 276,0 493,81 653,243 159,162 238,383 238,663l0 838 -642 0 0 -791c0,-90 -22,-162 -65,-216 -43,-53 -102,-80 -176,-80 -67,0 -124,25 -173,74 -49,49 -73,107 -73,174 0,71 22,129 66,175 44,46 101,68 168,68 56,0 108,-15 155,-44z"/>
  <path class="fil1" style="mask:url(#id0)" d="M9842 6412l1123 -1594 -1040 -1483 641 0 486 726c90,136 161,247 211,334 88,-123 166,-235 236,-335l512 -725 637 0 -1046 1483 1114 1594 -634 0 -636 -948 -145 -228 -822 1177 -637 0z"/>
  <path class="fil2" style="mask:url(#id2)" d="M6820 831c1086,0 1966,817 1966,1825 0,1008 -880,1825 -1966,1825 -1086,0 -1966,-817 -1966,-1825 0,-1008 880,-1825 1966,-1825z"/>
 </g>
</svg>
